<svg width="512" height="512" viewBox="0 0 512 512" xmlns="http://www.w3.org/2000/svg">
  <!-- Background circle with subtle gradient -->
  <defs>
    <radialGradient id="compassGradient" cx="0.5" cy="0.5" r="0.5">
      <stop offset="0%" style="stop-color:#F7E7CE;stop-opacity:1" />
      <stop offset="70%" style="stop-color:#E4D8CB;stop-opacity:1" />
      <stop offset="100%" style="stop-color:#CDC6C3;stop-opacity:1" />
    </radialGradient>
    <linearGradient id="needleGradient" x1="0%" y1="0%" x2="0%" y2="100%">
      <stop offset="0%" style="stop-color:#8B7355;stop-opacity:1" />
      <stop offset="50%" style="stop-color:#A09086;stop-opacity:1" />
      <stop offset="100%" style="stop-color:#CFB3A9;stop-opacity:1" />
    </linearGradient>
    <filter id="shadow" x="-20%" y="-20%" width="140%" height="140%">
      <feDropShadow dx="2" dy="4" stdDeviation="3" flood-color="#8B7355" flood-opacity="0.3"/>
    </filter>
  </defs>

  <!-- Outer compass ring -->
  <circle cx="256" cy="256" r="240" fill="url(#compassGradient)" stroke="#A09086" stroke-width="4" filter="url(#shadow)"/>

  <!-- Inner compass ring -->
  <circle cx="256" cy="256" r="200" fill="none" stroke="#CFB3A9" stroke-width="2" opacity="0.6"/>

  <!-- Cardinal direction markers -->
  <g stroke="#8B7355" stroke-width="3" stroke-linecap="round">
    <!-- North -->
    <line x1="256" y1="60" x2="256" y2="100"/>
    <!-- South -->
    <line x1="256" y1="412" x2="256" y2="452"/>
    <!-- East -->
    <line x1="412" y1="256" x2="452" y2="256"/>
    <!-- West -->
    <line x1="60" y1="256" x2="100" y2="256"/>
  </g>

  <!-- Direction letters -->
  <g fill="#8B7355" font-family="Arial, sans-serif" font-size="24" font-weight="bold" text-anchor="middle">
    <text x="256" y="45" dominant-baseline="middle">צ</text>
    <text x="467" y="256" dominant-baseline="middle">מ</text>
    <text x="256" y="467" dominant-baseline="middle">ד</text>
    <text x="45" y="256" dominant-baseline="middle">ע</text>
  </g>

  <!-- Compass needle -->
  <g transform="translate(256,256)">
    <!-- North pointer (red/maroon) -->
    <path d="M-8,-180 L8,-180 L2,-60 L-2,-60 Z" fill="#8B7355" filter="url(#shadow)"/>
    <!-- South pointer (lighter) -->
    <path d="M-8,60 L8,60 L2,180 L-2,180 Z" fill="#CFB3A9" filter="url(#shadow)"/>
    <!-- Needle center -->
    <circle cx="0" cy="0" r="12" fill="#F7E7CE" stroke="#A09086" stroke-width="2"/>
    <circle cx="0" cy="0" r="6" fill="#8B7355"/>
  </g>

  <!-- Decorative elements -->
  <g stroke="#A09086" stroke-width="1" opacity="0.4">
    <!-- Degree markers -->
    <g transform="translate(256,256)">
      <!-- Main degree markers (every 45°) -->
      <line x1="0" y1="-190" x2="0" y2="-170"/>
      <line x1="0" y1="170" x2="0" y2="190"/>
      <line x1="190" y1="0" x2="170" y2="0"/>
      <line x1="-190" y1="0" x2="-170" y2="0"/>
      <line x1="135" y1="-135" x2="120" y2="-120"/>
      <line x1="-135" y1="-135" x2="-120" y2="-120"/>
      <line x1="135" y1="135" x2="120" y2="120"/>
      <line x1="-135" y1="135" x2="-120" y2="120"/>
    </g>
  </g>

  <!-- Center decorative ring -->
  <circle cx="256" cy="256" r="30" fill="none" stroke="#CFB3A9" stroke-width="3" opacity="0.7"/>
</svg>
